<?xml version="1.0" encoding="utf-8"?>
<!-- Generator: Adobe Illustrator 19.0.0, SVG Export Plug-In . SVG Version: 6.00 Build 0)  -->
<svg version="1.1" id="Capa_1" xmlns="http://www.w3.org/2000/svg" xmlns:xlink="http://www.w3.org/1999/xlink" x="0px" y="0px"
	 viewBox="157 -157 514 514" style="enable-background:new 157 -157 514 514;" xml:space="preserve">
<style type="text/css">
	.st0{fill:#0080FE;}
	.st1{fill:#0C0C24;}
</style>
<g id="XMLID_35_">
	<g id="XMLID_6_">
		<path id="XMLID_5_" class="st0" d="M458.4,28.9l39.4-52.1v0.3h-51.9v-0.3L432.5-5.5L458.4,28.9z"/>
		<path id="XMLID_3_" class="st0" d="M518.5,157.9L382.2-23.3v0.3h-51.9v-0.3l130,173.7v0.6h-92.4v-0.7l27.6-37.2l-26-34.8l-60,79.7
			c-5.2,6.9-5.6,16.6-0.9,24c3.9,6.1,10.7,10,17.9,10h175c7.2,0,14-4,17.9-10C524.1,174.6,523.6,164.8,518.5,157.9z"/>
	</g>
	<g id="XMLID_2_">
		<path id="XMLID_85_" class="st1" d="M436.2-113.4c0-0.6-0.4-1-1.3-1.1l-12.1-1.8l-5.4-10.9c-0.3-0.7-0.7-1-1.2-1s-0.9,0.3-1.2,1
			l-5.4,10.9l-12.1,1.8c-0.9,0.1-1.3,0.5-1.3,1.1c0,0.3,0.2,0.7,0.6,1.2l8.8,8.5l-2.1,12c0,0.2,0,0.4,0,0.5c0,0.3,0.1,0.6,0.3,0.9
			c0.2,0.2,0.4,0.3,0.8,0.3c0.3,0,0.6-0.1,1-0.3l10.8-5.7l10.8,5.7c0.3,0.2,0.7,0.3,1,0.3s0.6-0.1,0.7-0.3c0.2-0.2,0.3-0.5,0.3-0.9
			c0-0.2,0-0.4,0-0.5l-2.1-12l8.7-8.5C436-112.6,436.2-113,436.2-113.4L436.2-113.4z"/>
	</g>
	<g id="XMLID_4_">
		<path id="XMLID_81_" class="st1" d="M477.5-63.9c0-0.4-0.3-0.6-0.9-0.7l-7.8-1.1l-3.5-7.1c-0.2-0.4-0.5-0.6-0.8-0.6
			s-0.6,0.2-0.8,0.6l-3.5,7.1l-7.8,1.1c-0.6,0.1-0.9,0.3-0.9,0.7c0,0.2,0.1,0.5,0.4,0.7l5.7,5.5l-1.3,7.8c0,0.1,0,0.2,0,0.3
			c0,0.2,0.1,0.4,0.2,0.6s0.3,0.2,0.5,0.2s0.4-0.1,0.6-0.2l7-3.7l7,3.7c0.2,0.1,0.4,0.2,0.6,0.2s0.4-0.1,0.5-0.2s0.2-0.3,0.2-0.6
			c0-0.1,0-0.2,0-0.3l-1.3-7.8l5.6-5.5C477.4-63.4,477.5-63.6,477.5-63.9L477.5-63.9z"/>
	</g>
	<g id="XMLID_7_">
		<path id="XMLID_77_" class="st1" d="M381.1-63.9c0-0.4-0.3-0.6-0.9-0.7l-7.8-1.1l-3.5-7.1c-0.2-0.4-0.5-0.6-0.8-0.6
			s-0.6,0.2-0.8,0.6l-3.5,7.1l-7.8,1.1c-0.6,0.1-0.9,0.3-0.9,0.7c0,0.2,0.1,0.5,0.4,0.7l5.7,5.5l-1.3,7.8c0,0.1,0,0.2,0,0.3
			c0,0.2,0.1,0.4,0.2,0.6c0.1,0.2,0.3,0.2,0.5,0.2c0.2,0,0.4-0.1,0.6-0.2l7-3.7l7,3.7c0.2,0.1,0.4,0.2,0.6,0.2s0.4-0.1,0.5-0.2
			c0.1-0.1,0.2-0.3,0.2-0.6c0-0.1,0-0.2,0-0.3l-1.3-7.8l5.6-5.5C381-63.4,381.1-63.6,381.1-63.9L381.1-63.9z"/>
	</g>
</g>
<g id="XMLID_1_">
	<path id="XMLID_18_" class="st1" d="M243,275v33.3c0,5-0.4,8.3-2.2,9.9s-5.2,2.4-10.8,2.4c-5.5,0-9.4-0.8-11.2-2.4
		s-2.8-4.9-2.8-9.9V275h-9v35.1c0,6.6,2.4,11.4,5.9,14.3c3.4,2.9,9.4,4.3,17.1,4.3s12.8-1.5,16.3-4.3c3.5-2.9,4.8-7.7,4.8-14.3V275
		H243z"/>
	<polygon id="XMLID_21_" class="st1" points="312.6,294.6 329.1,275 318.9,275 307.5,288.7 	"/>
	<g id="XMLID_14_">
		<polygon id="XMLID_19_" class="st1" points="292.3,307.1 275.9,328 285.9,328 297.4,313.6 		"/>
		<polygon id="XMLID_23_" class="st1" points="286.5,275 276.1,275 319,328 329.7,328 		"/>
	</g>
	<polygon id="XMLID_22_" class="st1" points="361,320 361,275 353,275 353,328 395,328 395,320 	"/>
	<path id="XMLID_33_" class="st1" d="M444.7,275.6l-0.3-0.6h-6.5L412,328h9l6.7-13h26.9l6.9,13h9.1L444.7,275.6z M450.8,307h-19.2
		l9.6-19.3L450.8,307z"/>
	<path id="XMLID_31_" class="st1" d="M543.4,302.6c-1.2-2-3-3.8-5.2-5.3c1.1-0.9,1.9-2,2.6-3.3c0.9-1.7,1.3-3.7,1.3-5.9
		c0-4.5-1.4-7.6-4.2-9.9c-2.7-2.3-6.8-3.1-12-3.1H494v53h33.4c5.5,0,10-1.8,13.2-4.7c3.3-2.9,5-7.1,5-12.1
		C545.6,308,544.9,305,543.4,302.6z M531.8,293.2c-1.2,1-3.1,1.8-5.5,1.8H502v-12h24.3c2.5,0,4.4,0.1,5.5,1.2c1.2,1,1.7,2.5,1.7,4.6
		C533.6,290.7,533,292.1,531.8,293.2z M534.8,317.5c-1.5,1.5-3.5,2.5-6.1,2.5H502v-17h26.6c2.6,0,4.6,0.4,6.1,1.9s2.2,3.6,2.2,6.2
		C537,313.9,536.2,315.9,534.8,317.5z"/>
	<path id="XMLID_61_" class="st1" d="M616.6,300.4c-3.2-2.9-7.5-4.6-12.8-5.2c-1.8-0.2-4.3-0.4-7.5-0.6c-6.7-0.4-11.1-1.4-13-2.8
		c-0.7-0.6-1.3-1.2-1.6-1.8c-0.3-0.6-0.5-1.2-0.5-2c0-1.9,1.1-3.4,3.3-4.7c2.3-1.4,5.3-2.1,9-2.1c3.5,0,7,0.6,10.3,1.9
		c3.3,1.2,6.6,3.1,9.6,5.5l0.8,0.7l4.9-6.9l-0.8-0.6c-3.8-2.8-7.8-4.9-12.1-6.3c-4.2-1.4-8.6-2.2-12.9-2.2c-6,0-11,1.4-14.8,4.2
		c-3.9,2.8-5.9,6.5-5.9,10.9c0,2.4,0.7,4.7,2,6.6c1.3,1.9,3.3,3.5,5.8,4.8c3.2,1.4,8.9,2.4,17.5,3c1.7,0.1,3,0.2,3.8,0.3
		c3.5,0.3,6.3,1.2,8.2,2.7c1.9,1.4,2.8,3.2,2.8,5.4c0,2.8-1.3,5.1-4,6.9c-2.8,1.9-6.4,2.8-10.9,2.8c-3.7,0-7.4-0.7-11.2-2.1
		c-3.8-1.4-7.5-3.5-11-6.3l-0.8-0.7L570,319l0.7,0.6c4,3.1,8.3,5.4,12.7,6.9s9.3,2.3,14.5,2.3c6.9,0,12.6-1.6,16.9-4.8
		c4.4-3.3,6.6-7.5,6.6-12.6C621.4,307,619.8,303.3,616.6,300.4z"/>
</g>
</svg>
